<?xml version="1.0" encoding="UTF-8" standalone="no"?>
<!-- Created with Inkscape (http://www.inkscape.org/) -->

<svg
   xmlns:dc="http://purl.org/dc/elements/1.1/"
   xmlns:cc="http://creativecommons.org/ns#"
   xmlns:rdf="http://www.w3.org/1999/02/22-rdf-syntax-ns#"
   xmlns:svg="http://www.w3.org/2000/svg"
   xmlns="http://www.w3.org/2000/svg"
   xmlns:sodipodi="http://sodipodi.sourceforge.net/DTD/sodipodi-0.dtd"
   xmlns:inkscape="http://www.inkscape.org/namespaces/inkscape"
   width="50mm"
   height="50mm"
   viewBox="0 0 177.16535 177.16535"
   id="svg5136"
   version="1.1"
   inkscape:version="0.91 r"
   inkscape:export-filename="/home/manparvesh/Dropbox/GitHubRepos_Ubuntu/manparvesh.github.io/logo design inkscape svg/with cut-out/drawing.png"
   inkscape:export-xdpi="90"
   inkscape:export-ydpi="90"
   sodipodi:docname="drawing.svg">
  <defs
     id="defs5138" />
  <sodipodi:namedview
     id="base"
     pagecolor="#ffffff"
     bordercolor="#666666"
     borderopacity="1.0"
     inkscape:pageopacity="0.0"
     inkscape:pageshadow="2"
     inkscape:zoom="2.8"
     inkscape:cx="82.487141"
     inkscape:cy="93.107349"
     inkscape:document-units="px"
     inkscape:current-layer="layer1"
     showgrid="false"
     inkscape:window-width="1366"
     inkscape:window-height="744"
     inkscape:window-x="0"
     inkscape:window-y="24"
     inkscape:window-maximized="1" />
  <metadata
     id="metadata5141">
    <rdf:RDF>
      <cc:Work
         rdf:about="">
        <dc:format>image/svg+xml</dc:format>
        <dc:type
           rdf:resource="http://purl.org/dc/dcmitype/StillImage" />
        <dc:title></dc:title>
      </cc:Work>
    </rdf:RDF>
  </metadata>
  <g
     inkscape:label="Layer 1"
     inkscape:groupmode="layer"
     id="layer1"
     transform="translate(0,-875.19685)">
    <path
       style="opacity:0.803;fill:#ff8e2a;fill-opacity:1;stroke:#000000;stroke-width:0.2;stroke-linecap:round;stroke-linejoin:round;stroke-miterlimit:4;stroke-dasharray:none;stroke-opacity:0.68918918"
       d="M 88.572266 0.37890625 A 88.571437 88.392871 0 0 0 0 88.773438 A 88.571437 88.392871 0 0 0 88.572266 177.16602 A 88.571437 88.392871 0 0 0 177.14258 88.773438 A 88.571437 88.392871 0 0 0 88.572266 0.37890625 z M 125.04883 21.902344 C 125.8115 21.902344 126.33948 21.924064 126.63281 21.96875 C 128.68617 22.192182 130.15319 22.35008 131.0332 22.439453 C 131.91321 22.528826 133.11723 22.706491 134.64258 22.974609 C 136.2266 23.198041 137.34099 23.444772 137.98633 23.712891 C 138.69034 23.981009 139.51054 24.360012 140.44922 24.851562 C 141.3879 25.298427 142.06394 25.835328 142.47461 26.460938 C 142.88528 27.041861 143.23596 27.778147 143.5293 28.671875 C 143.82263 29.565603 143.9707 30.572293 143.9707 31.689453 C 143.9707 33.655655 143.61807 35.710521 142.91406 37.855469 C 142.21005 39.95573 141.50674 41.005859 140.80273 41.005859 C 140.04006 41.005859 139.6582 41.430255 139.6582 42.279297 C 139.6582 43.307084 137.89699 45.05006 134.37695 47.507812 C 130.85691 49.965565 128.10016 51.351258 126.10547 51.664062 C 123.70011 52.155613 122.32075 52.647121 121.96875 53.138672 C 121.55808 53.719595 119.65271 54.009766 116.25 54.009766 L 111.05664 54.009766 L 111.9375 66.074219 C 112.17217 69.157581 112.28906 71.861854 112.28906 74.185547 C 112.28906 77.045477 111.96761 78.833846 111.32227 79.548828 C 110.32492 80.442556 109.47354 80.888672 108.76953 80.888672 C 107.47885 80.888672 106.65669 79.883935 106.30469 77.873047 C 105.71801 74.432194 104.98548 67.906405 104.10547 58.298828 C 103.22546 48.691251 102.78516 42.234528 102.78516 38.927734 L 102.78516 31.755859 L 100.14453 33.164062 C 98.971184 33.789672 97.944463 34.101562 97.064453 34.101562 C 96.712449 34.101562 96.332546 33.945617 95.921875 33.632812 C 95.569871 33.320008 95.392578 32.941005 95.392578 32.494141 C 95.392578 31.242921 97.066118 29.274934 100.41016 26.59375 C 102.28751 25.074412 103.69414 24.069675 104.63281 23.578125 C 105.57149 23.086575 106.53976 22.841797 107.53711 22.841797 C 107.83045 22.841797 108.3292 22.885237 109.0332 22.974609 C 109.73721 23.019296 110.53015 23.042969 111.41016 23.042969 C 113.28751 23.042969 115.57474 22.863351 118.27344 22.505859 C 121.0308 22.103682 123.28881 21.902344 125.04883 21.902344 z M 37.878906 22.169922 C 38.641582 22.169922 39.37607 22.752216 40.080078 23.914062 C 40.842754 25.075909 41.809075 27.197888 42.982422 30.28125 C 44.742442 35.152068 46.766661 39.553924 49.054688 43.486328 C 51.401381 47.374045 53.074921 49.318359 54.072266 49.318359 C 55.06961 49.318359 57.181499 47.23982 60.408203 43.083984 C 63.634907 38.883462 67.330713 33.409757 71.496094 26.662109 C 72.258769 25.41089 73.256267 24.4042 74.488281 23.644531 C 75.720295 22.884862 76.922356 22.505859 78.095703 22.505859 C 78.917046 22.505859 79.561911 22.685478 80.03125 23.042969 C 81.321931 23.936697 82.173313 25.94617 82.583984 29.074219 C 82.994656 32.157581 83.257665 38.681416 83.375 48.646484 C 83.433667 54.679149 83.61096 59.596187 83.904297 63.394531 C 84.197634 67.192876 84.489866 69.605025 84.783203 70.632812 C 85.135207 71.615913 85.429393 72.442985 85.664062 73.113281 C 85.898732 73.783577 86.015625 74.431031 86.015625 75.056641 C 86.015625 76.441919 85.193467 77.134766 83.550781 77.134766 C 82.612104 77.134766 81.704229 76.911708 80.824219 76.464844 C 79.944209 76.01798 79.328567 75.437639 78.976562 74.722656 C 78.624558 74.007674 78.271926 70.051933 77.919922 62.857422 C 77.567918 55.662911 77.215285 48.69296 76.863281 41.945312 C 76.511277 35.197665 76.129421 31.822266 75.71875 31.822266 C 75.190744 31.822266 74.04713 33.320464 72.287109 36.314453 C 70.175085 39.978738 67.447554 44.021358 64.103516 48.445312 C 62.871502 50.09871 60.993399 51.596908 58.470703 52.9375 C 56.006675 54.233406 53.836339 54.880859 51.958984 54.880859 C 51.489646 54.880859 50.640217 54.322238 49.408203 53.205078 C 48.176189 52.043232 46.942952 50.657539 45.710938 49.048828 L 41.222656 43.21875 L 41.222656 60.511719 C 41.163989 69.002136 40.871756 74.542954 40.34375 77.134766 C 39.874411 79.771264 38.818467 81.089844 37.175781 81.089844 C 36.413106 81.089844 35.797464 80.687168 35.328125 79.882812 C 34.917454 79.078457 34.564821 77.335481 34.271484 74.654297 C 33.978148 71.973113 33.771632 68.376608 33.654297 63.863281 C 33.59563 59.305268 33.566406 53.02621 33.566406 45.027344 C 33.566406 31.308617 33.919039 24.113655 34.623047 23.443359 C 35.44439 22.594318 36.529557 22.169922 37.878906 22.169922 z M 124.16992 27.265625 C 122.99658 27.265625 120.29827 27.599235 116.07422 28.269531 C 112.96485 28.761082 111.0283 29.365096 110.26562 30.080078 C 109.50295 30.795061 109.12109 32.425531 109.12109 34.972656 C 109.12109 37.564468 109.32761 40.381246 109.73828 43.419922 C 110.14895 46.458597 110.5873 48.1779 111.05664 48.580078 C 111.29131 48.80351 111.96735 48.916016 113.08203 48.916016 C 114.95939 48.916016 117.48235 48.602172 120.65039 47.976562 C 123.81843 47.306266 126.37062 46.56998 128.30664 45.765625 C 129.47999 45.274075 130.47553 44.69178 131.29688 44.021484 C 132.11822 43.306502 132.55852 42.680768 132.61719 42.144531 C 132.79319 41.16143 133.81991 39.732298 135.69727 37.855469 C 137.63329 35.933953 138.60156 34.370595 138.60156 33.164062 C 138.60156 30.661624 135.93248 28.962087 130.59375 28.068359 C 127.54305 27.532123 125.40194 27.265625 124.16992 27.265625 z M 104.44531 86.541016 C 107.16104 86.541016 112.97552 87.032519 121.88867 88.015625 C 130.80182 88.998731 136.09441 89.736963 137.76562 90.228516 C 142.4311 91.395954 144.76367 94.191256 144.76367 98.615234 C 144.76367 100.70434 144.17206 102.85442 142.98828 105.06641 C 141.87414 107.21695 140.6212 109.02925 139.22852 110.50391 C 137.83584 111.91712 136.54706 113.23791 135.36328 114.4668 C 134.24914 115.69568 133.69336 116.46426 133.69336 116.77148 C 133.69336 117.20159 131.67354 118.58504 127.63477 120.91992 C 123.66563 123.19335 120.14788 125.036 117.08398 126.44922 C 114.57716 127.6781 113.32422 128.44669 113.32422 128.75391 C 113.32422 128.87679 114.61299 129.33599 117.18945 130.13477 C 119.83555 130.8721 123.00276 131.88741 126.69336 133.17773 C 130.38396 134.46806 133.24038 135.7262 135.25977 136.95508 C 138.46293 138.92129 140.41303 139.90625 141.10938 139.90625 C 142.08425 139.96769 143.64994 141.01141 145.80859 143.03906 C 148.03688 145.00527 149.15039 146.41908 149.15039 147.2793 C 149.15039 148.8154 148.5249 149.58203 147.27148 149.58203 C 146.15734 149.58203 144.27695 148.96912 141.63086 147.74023 C 139.0544 146.51135 135.67804 144.91348 131.5 142.94727 C 127.39159 140.91961 123.49138 139.29138 119.80078 138.0625 L 111.6543 135.20508 L 112.07031 145.98828 C 112.13995 147.64727 112.17578 149.58293 112.17578 151.79492 L 112.17578 152.34766 C 112.17578 153.51509 112.13995 154.34438 112.07031 154.83594 C 112.00068 155.38893 111.75765 155.88044 111.33984 156.31055 C 110.92204 156.8021 110.26071 157.04883 109.35547 157.04883 C 106.70938 157.04883 105.38672 153.30087 105.38672 145.80469 C 105.38672 137.93984 103.95851 133.4233 101.10352 132.25586 C 99.014495 131.45709 97.970703 130.35072 97.970703 128.9375 C 97.970703 127.64717 98.980614 126.57116 101 125.71094 L 104.44531 124.33008 L 103.61133 113.82227 C 103.19352 108.23085 102.73939 104.35953 102.25195 102.20898 C 101.83415 99.996995 101.24254 98.890625 100.47656 98.890625 C 100.26766 98.890625 99.851315 99.107 99.224609 99.537109 C 98.597903 99.967218 97.831023 100.18164 96.925781 100.18164 C 96.090173 100.18164 95.359128 99.936866 94.732422 99.445312 C 94.105716 98.953759 93.792969 98.308539 93.792969 97.509766 C 93.792969 96.465215 95.358657 94.375838 98.492188 91.242188 C 101.62572 88.108537 103.6097 86.541016 104.44531 86.541016 z M 65.578125 87.09375 C 68.502753 87.09375 70.695889 87.27782 72.158203 87.646484 C 73.620517 88.015149 75.186206 88.814086 76.857422 90.042969 C 78.0412 90.903187 79.086945 91.916546 79.992188 93.083984 C 80.89743 94.189979 81.349609 95.051574 81.349609 95.666016 C 81.349609 97.140675 81.070744 97.876953 80.513672 97.876953 C 79.9566 97.876953 79.225555 97.569519 78.320312 96.955078 C 77.41507 96.340637 76.474876 95.695417 75.5 95.019531 C 74.525124 94.282202 73.13275 93.606629 71.322266 92.992188 C 69.511781 92.377746 67.527795 92.070312 65.369141 92.070312 C 59.519884 92.070312 54.157584 93.945267 49.283203 97.693359 C 44.478457 101.44145 42.076172 105.49684 42.076172 109.85938 C 42.076172 113.42313 49.249145 117.2318 63.59375 121.28711 C 74.874459 124.42076 80.513672 129.30544 80.513672 135.94141 C 80.513672 137.29318 80.234806 138.8607 79.677734 140.64258 C 78.076152 145.43522 75.36112 148.75238 71.53125 150.5957 C 67.70138 152.43903 61.016421 153.63841 51.476562 154.19141 L 42.076172 154.74414 L 39.255859 149.58203 C 37.793545 147.06282 37.0625 144.5446 37.0625 142.02539 C 37.0625 139.93629 37.620231 138.24541 38.734375 136.95508 C 39.848519 135.66475 41.414208 135.02148 43.433594 135.02148 C 44.965542 135.02148 45.732422 135.85077 45.732422 137.50977 C 45.732422 138.73865 45.208573 139.84307 44.164062 140.82617 C 43.119552 141.74783 42.597656 142.51642 42.597656 143.13086 C 42.597656 143.80674 42.84264 144.60568 43.330078 145.52734 C 44.026418 146.87911 44.896896 147.7084 45.941406 148.01562 C 47.05555 148.32285 49.734747 148.47656 53.982422 148.47656 C 57.60339 148.47656 60.320375 148.29249 62.130859 147.92383 C 63.941344 147.55516 65.682299 146.81693 67.353516 145.71094 C 70.069242 143.9905 71.740481 142.63936 72.367188 141.65625 C 73.063528 140.6117 73.412109 138.86011 73.412109 136.40234 C 73.412109 134.55902 73.027693 133.26858 72.261719 132.53125 C 71.495745 131.73248 69.442042 130.65841 66.099609 129.30664 C 61.294863 127.34043 58.195414 126.35742 56.802734 126.35742 C 53.808472 126.35742 49.213052 124.05362 43.015625 119.44531 C 36.887832 114.837 33.824219 111.39453 33.824219 109.12109 C 33.824219 105.86455 35.704607 102.14695 39.464844 97.96875 C 43.22508 93.729105 47.438037 90.626369 52.103516 88.660156 C 54.471072 87.615606 58.962894 87.09375 65.578125 87.09375 z M 108.9375 93.453125 L 109.66797 98.429688 C 109.87687 99.65857 110.19157 102.27176 110.60938 106.26562 C 111.02718 110.19805 111.40964 113.69928 111.75781 116.77148 C 112.10598 119.78225 112.34901 121.28711 112.48828 121.28711 C 113.46316 121.28711 116.04071 120.27375 120.21875 118.24609 C 124.39679 116.21844 127.32097 114.52951 128.99219 113.17773 C 130.80267 111.76452 132.85637 109.21399 135.1543 105.52734 C 137.45222 101.8407 138.60156 99.320521 138.60156 97.96875 C 138.60156 97.722973 138.53185 97.538904 138.39258 97.416016 C 138.25331 97.293127 137.59198 97.048352 136.4082 96.679688 C 135.29406 96.311023 133.44951 95.819519 130.87305 95.205078 C 126.13793 94.03764 121.33336 93.453125 116.45898 93.453125 L 108.9375 93.453125 z "
       transform="translate(0,875.19685)"
       id="path5684"
       inkscape:export-filename="/home/manparvesh/Dropbox/GitHubRepos_Ubuntu/manparvesh.github.io/logo design inkscape svg/with cut-out/path5684.png"
       inkscape:export-xdpi="90"
       inkscape:export-ydpi="90" />
    <text
       xml:space="preserve"
       style="font-style:normal;font-weight:normal;font-size:10px;line-height:125%;font-family:sans-serif;letter-spacing:0px;word-spacing:0px;fill:#000000;fill-opacity:1;stroke:none;stroke-width:1px;stroke-linecap:butt;stroke-linejoin:miter;stroke-opacity:1;opacity:0.98;"
       x="52.857143"
       y="934.14795"
       id="text5686"
       sodipodi:linespacing="125%"><tspan
         sodipodi:role="line"
         id="tspan5688"
         x="52.857143"
         y="934.14795" /></text>
  </g>
</svg>
